<svg width="1536px" height="678px" style="" class="" version="1.1" xmlns="http://www.w3.org/2000/svg"><g class="leaflet-zoom-hide"><g class="layer" transform="translate(859,278)"><path class="node" d="M95,227m0,11.903347162288057a11.903347162288057,11.903347162288057 0 1,1 0,-23.806694324576114a11.903347162288057,11.903347162288057 0 1,1 0,23.806694324576114z" style="fill: rgb(212, 28, 225); stroke: rgb(212, 28, 225); opacity: 0.8;"></path><path class="node" d="M-31,189m0,7.447187638217831a7.447187638217831,7.447187638217831 0 1,1 0,-14.894375276435662a7.447187638217831,7.447187638217831 0 1,1 0,14.894375276435662z" style="fill: rgb(212, 28, 225); stroke: rgb(212, 28, 225); opacity: 0.8;"></path><path class="node" d="M-110,182m0,26a26,26 0 1,1 0,-52a26,26 0 1,1 0,52z" style="fill: rgb(212, 28, 225); stroke: rgb(212, 28, 225); opacity: 0.8;"></path><path class="node" d="M36,172m0,9.85577686051949a9.85577686051949,9.85577686051949 0 1,1 0,-19.71155372103898a9.85577686051949,9.85577686051949 0 1,1 0,19.71155372103898z" style="fill: rgb(212, 28, 225); stroke: rgb(212, 28, 225); opacity: 0.8;"></path><path class="node" d="M72,170m0,10.57168996069614a10.57168996069614,10.57168996069614 0 1,1 0,-21.14337992139228a10.57168996069614,10.57168996069614 0 1,1 0,21.14337992139228z" style="fill: rgb(212, 28, 225); stroke: rgb(212, 28, 225); opacity: 0.8;"></path><path class="node" d="M0,168m0,6.712542609535351a6.712542609535351,6.712542609535351 0 1,1 0,-13.425085219070702a6.712542609535351,6.712542609535351 0 1,1 0,13.425085219070702z" style="fill: rgb(212, 28, 225); stroke: rgb(212, 28, 225); opacity: 0.8;"></path><path class="node" d="M100,152m0,8.759048538847063a8.759048538847063,8.759048538847063 0 1,1 0,-17.518097077694126a8.759048538847063,8.759048538847063 0 1,1 0,17.518097077694126z" style="fill: rgb(212, 28, 225); stroke: rgb(212, 28, 225); opacity: 0.8;"></path><path class="node" d="M-255,148m0,8.267152483184155a8.267152483184155,8.267152483184155 0 1,1 0,-16.53430496636831a8.267152483184155,8.267152483184155 0 1,1 0,16.53430496636831z" style="fill: rgb(212, 28, 225); stroke: rgb(212, 28, 225); opacity: 0.8;"></path><path class="node" d="M-185,144m0,4.036277506923999a4.036277506923999,4.036277506923999 0 1,1 0,-8.072555013847998a4.036277506923999,4.036277506923999 0 1,1 0,8.072555013847998z" style="fill: rgb(212, 28, 225); stroke: rgb(212, 28, 225); opacity: 0.8;"></path><path class="node" d="M-29,142m0,7.348378371275526a7.348378371275526,7.348378371275526 0 1,1 0,-14.696756742551052a7.348378371275526,7.348378371275526 0 1,1 0,14.696756742551052z" style="fill: rgb(212, 28, 225); stroke: rgb(212, 28, 225); opacity: 0.8;"></path><path class="node" d="M126,132m0,8.759048538847063a8.759048538847063,8.759048538847063 0 1,1 0,-17.518097077694126a8.759048538847063,8.759048538847063 0 1,1 0,17.518097077694126z" style="fill: rgb(212, 28, 225); stroke: rgb(212, 28, 225); opacity: 0.8;"></path><path class="node" d="M-88,132m0,12.930652783359662a12.930652783359662,12.930652783359662 0 1,1 0,-25.861305566719324a12.930652783359662,12.930652783359662 0 1,1 0,25.861305566719324z" style="fill: rgb(212, 28, 225); stroke: rgb(212, 28, 225); opacity: 0.8;"></path><path class="node" d="M38,126m0,4.50207361696326a4.50207361696326,4.50207361696326 0 1,1 0,-9.00414723392652a4.50207361696326,4.50207361696326 0 1,1 0,9.00414723392652z" style="fill: rgb(212, 28, 225); stroke: rgb(212, 28, 225); opacity: 0.8;"></path><path class="node" d="M-342,113m0,5.700074179900468a5.700074179900468,5.700074179900468 0 1,1 0,-11.400148359800935a5.700074179900468,5.700074179900468 0 1,1 0,11.400148359800935z" style="fill: rgb(212, 28, 225); stroke: rgb(212, 28, 225); opacity: 0.8;"></path><path class="node" d="M129,106m0,12.881583497896708a12.881583497896708,12.881583497896708 0 1,1 0,-25.763166995793416a12.881583497896708,12.881583497896708 0 1,1 0,25.763166995793416z" style="fill: rgb(212, 28, 225); stroke: rgb(212, 28, 225); opacity: 0.8;"></path><path class="node" d="M50,105m0,3.7586077858091764a3.7586077858091764,3.7586077858091764 0 1,1 0,-7.517215571618353a3.7586077858091764,3.7586077858091764 0 1,1 0,7.517215571618353z" style="fill: rgb(212, 28, 225); stroke: rgb(212, 28, 225); opacity: 0.8;"></path><path class="node" d="M-28,88m0,11.629475604346007a11.629475604346007,11.629475604346007 0 1,1 0,-23.258951208692014a11.629475604346007,11.629475604346007 0 1,1 0,23.258951208692014z" style="fill: rgb(212, 28, 225); stroke: rgb(212, 28, 225); opacity: 0.8;"></path><path class="node" d="M-183,81m0,3a3,3 0 1,1 0,-6a3,3 0 1,1 0,6z" style="fill: rgb(212, 28, 225); stroke: rgb(212, 28, 225); opacity: 0.8;"></path><path class="node" d="M161,80m0,6.108832520771996a6.108832520771996,6.108832520771996 0 1,1 0,-12.217665041543992a6.108832520771996,6.108832520771996 0 1,1 0,12.217665041543992z" style="fill: rgb(212, 28, 225); stroke: rgb(212, 28, 225); opacity: 0.8;"></path><path class="node" d="M149,77m0,4.280909442112072a4.280909442112072,4.280909442112072 0 1,1 0,-8.561818884224143a4.280909442112072,4.280909442112072 0 1,1 0,8.561818884224143z" style="fill: rgb(212, 28, 225); stroke: rgb(212, 28, 225); opacity: 0.8;"></path><path class="node" d="M-298,74m0,5.553493078542351a5.553493078542351,5.553493078542351 0 1,1 0,-11.106986157084702a5.553493078542351,5.553493078542351 0 1,1 0,11.106986157084702z" style="fill: rgb(212, 28, 225); stroke: rgb(212, 28, 225); opacity: 0.8;"></path><path class="node" d="M-249,74m0,4.705455065646917a4.705455065646917,4.705455065646917 0 1,1 0,-9.410910131293834a4.705455065646917,4.705455065646917 0 1,1 0,9.410910131293834z" style="fill: rgb(212, 28, 225); stroke: rgb(212, 28, 225); opacity: 0.8;"></path><path class="node" d="M41,70m0,6.598096391148142a6.598096391148142,6.598096391148142 0 1,1 0,-13.196192782296285a6.598096391148142,6.598096391148142 0 1,1 0,13.196192782296285z" style="fill: rgb(212, 28, 225); stroke: rgb(212, 28, 225); opacity: 0.8;"></path><path class="node" d="M77,67m0,9.507936619272366a9.507936619272366,9.507936619272366 0 1,1 0,-19.01587323854473a9.507936619272366,9.507936619272366 0 1,1 0,19.01587323854473z" style="fill: rgb(212, 28, 225); stroke: rgb(212, 28, 225); opacity: 0.8;"></path><path class="node" d="M166,66m0,3.7586077858091764a3.7586077858091764,3.7586077858091764 0 1,1 0,-7.517215571618353a3.7586077858091764,3.7586077858091764 0 1,1 0,7.517215571618353z" style="fill: rgb(212, 28, 225); stroke: rgb(212, 28, 225); opacity: 0.8;"></path><path class="node" d="M9,60m0,5.553493078542351a5.553493078542351,5.553493078542351 0 1,1 0,-11.106986157084702a5.553493078542351,5.553493078542351 0 1,1 0,11.106986157084702z" style="fill: rgb(212, 28, 225); stroke: rgb(212, 28, 225); opacity: 0.8;"></path><path class="node" d="M-113,46m0,3.7586077858091764a3.7586077858091764,3.7586077858091764 0 1,1 0,-7.517215571618353a3.7586077858091764,3.7586077858091764 0 1,1 0,7.517215571618353z" style="fill: rgb(212, 28, 225); stroke: rgb(212, 28, 225); opacity: 0.8;"></path><path class="node" d="M193,42m0,3a3,3 0 1,1 0,-6a3,3 0 1,1 0,6z" style="fill: rgb(212, 28, 225); stroke: rgb(212, 28, 225); opacity: 0.8;"></path><path class="node" d="M-212,21m0,3a3,3 0 1,1 0,-6a3,3 0 1,1 0,6z" style="fill: rgb(212, 28, 225); stroke: rgb(212, 28, 225); opacity: 0.8;"></path><path class="node" d="M-357,4m0,3.429240197750099a3.429240197750099,3.429240197750099 0 1,1 0,-6.858480395500198a3.429240197750099,3.429240197750099 0 1,1 0,6.858480395500198z" style="fill: rgb(212, 28, 225); stroke: rgb(212, 28, 225); opacity: 0.8;"></path><path class="node" d="M-294,4m0,3.7586077858091764a3.7586077858091764,3.7586077858091764 0 1,1 0,-7.517215571618353a3.7586077858091764,3.7586077858091764 0 1,1 0,7.517215571618353z" style="fill: rgb(212, 28, 225); stroke: rgb(212, 28, 225); opacity: 0.8;"></path><path class="node" d="M-121,0m0,3.7586077858091764a3.7586077858091764,3.7586077858091764 0 1,1 0,-7.517215571618353a3.7586077858091764,3.7586077858091764 0 1,1 0,7.517215571618353z" style="fill: rgb(212, 28, 225); stroke: rgb(212, 28, 225); opacity: 0.8;"></path><path class="node" d="M-229,-34m0,3.7586077858091764a3.7586077858091764,3.7586077858091764 0 1,1 0,-7.517215571618353a3.7586077858091764,3.7586077858091764 0 1,1 0,7.517215571618353z" style="fill: rgb(212, 28, 225); stroke: rgb(212, 28, 225); opacity: 0.8;"></path><path class="node" d="M-351,-43m0,4.280909442112072a4.280909442112072,4.280909442112072 0 1,1 0,-8.561818884224143a4.280909442112072,4.280909442112072 0 1,1 0,8.561818884224143z" style="fill: rgb(212, 28, 225); stroke: rgb(212, 28, 225); opacity: 0.8;"></path></g></g></svg>